<svg version="1.1" xmlns="http://www.w3.org/2000/svg" x="0px" y="0px" viewBox="0 0 1000 1000" enableBackground="new 0 0 1000 1000">
    <g><g transform="translate(0.000000,511.000000) scale(0.100000,-0.100000)"><path d="M8139.2,4399.4c-31.5-46.1-38.8-143.1-38.8-570v-516.6h-807.6c-878,0-989.6-12.1-1205.4-138.3c-169.8-101.9-359-293.5-468.1-480.2c-53.4-92.2-232.8-395.3-395.3-671.8l-300.8-499.6l283.8-475.4l281.3-477.8l506.9,856.2c281.3,470.5,526.3,870.7,548.1,887.7c29.1,21.8,228,29.1,798,29.1h759.1v-543.3c0-497.2,4.9-548.1,46.1-599.1c43.7-53.3,50.9-55.8,118.8-21.8c41.2,19.4,424.4,392.9,853.7,829.5l781,795.5l-781,793.1c-429.3,439-802.8,807.6-831.9,824.6C8209.5,4464.9,8180.4,4460,8139.2,4399.4z"/><path d="M412,3281.3c-46.1-14.6-123.7-67.9-174.6-118.9c-225.6-225.5-162.5-611.2,123.7-764l106.7-55.8h1132.7h1132.6l48.5-53.4c26.7-31.5,700.9-1152.1,1496.4-2493.3c1561.9-2631.5,1545-2607.3,1838.4-2755.2c223.1-114,378.3-131,1215.1-131h768.8V-3614c0-312.9,9.7-540.9,24.3-570c17-29.1,50.9-46.1,94.6-46.1c60.6,0,189.2,121.3,873.1,814.9l802.8,817.4L9109.3-1795c-431.7,441.4-814.9,812.5-851.3,827.1c-55.8,19.4-72.8,14.5-111.6-34c-41.2-50.9-46.1-101.9-46.1-586.9V-2120h-759.1c-705.8,0-764,2.4-807.6,43.7c-24.2,26.7-696.1,1142.3-1489.2,2481.2C3497,3016.9,3482.5,3036.3,3206,3177c-261.9,133.4-305.6,135.8-1557.1,133.4C884.9,3308,467.8,3298.3,412,3281.3z"/><path d="M3424.3-997.1c-213.4-356.5-443.8-744.6-511.7-861c-67.9-116.4-145.5-223.1-172.2-237.7c-29.1-14.6-448.7-24.3-1164.2-24.3c-1050.2,0-1122.9-2.4-1207.8-46.1C53-2328.6,6.9-2726.3,276.2-2961.6c48.5-43.7,118.8-87.3,155.2-97c36.4-12.1,601.5-19.4,1253.9-19.4c1115.7,0,1198.1,2.4,1334,48.5c206.2,65.5,417.2,218.3,543.3,390.5c114,157.6,802.8,1312.1,802.8,1348.5c0,17-514.2,899.8-545.7,936.2C3814.8-349.5,3637.7-638.1,3424.3-997.1z"/></g></g>
</svg>
